<svg width="500" height="112" viewBox="0 0 500 112" fill="none" xmlns="http://www.w3.org/2000/svg">
<g clip-path="url(#clip0_691_225)">
<path d="M155.119 111.58V2.1897H161.059V19.3997C161.76 18.6369 162.405 17.8248 162.989 16.9697C165.418 11.9332 169.231 7.69303 173.983 4.74598C178.735 1.79892 184.228 0.267018 189.819 0.329718C203.349 -0.0702823 214.339 4.9397 220.819 16.9697C224.925 24.4429 227.184 32.7894 227.408 41.3132C227.633 49.837 225.816 58.2908 222.109 65.9697C216.109 79.4697 201.229 86.1697 185.309 83.7097C180.356 83.286 175.588 81.6292 171.44 78.8904C167.291 76.1515 163.895 72.4178 161.559 68.0297V111.54L155.119 111.58ZM161.059 40.8897C161.579 46.2197 161.779 50.0197 162.389 53.7297C164.729 68.3597 173.389 77.0397 186.949 78.6197C193.323 79.6656 199.862 78.4691 205.453 75.2344C211.043 71.9997 215.339 66.9267 217.609 60.8797C220.217 54.6608 221.473 47.958 221.292 41.2167C221.111 34.4754 219.497 27.8497 216.559 21.7797C214.136 16.3609 210.016 11.8777 204.82 9.00742C199.625 6.13717 193.636 5.0358 187.759 5.8697C182.246 6.27441 176.996 8.38589 172.738 11.9109C168.48 15.4358 165.426 20.1993 163.999 25.5397C162.724 30.5954 161.742 35.7207 161.059 40.8897Z" fill="white"/>
<path d="M348.531 55.7897C347.631 63.4923 343.963 70.6057 338.212 75.8075C332.46 81.0092 325.015 83.9453 317.261 84.0698C292.381 85.3198 280.711 68.7997 278.851 49.7297C277.562 39.3774 279.244 28.8721 283.701 19.4397C286.803 12.9677 291.884 7.65064 298.209 4.2582C304.533 0.865766 311.773 -0.426064 318.881 0.569728C325.637 1.14456 332.042 3.82918 337.189 8.24383C342.336 12.6585 345.964 18.5797 347.561 25.1697C348.824 31.1739 349.756 37.2431 350.351 43.3497H285.001C283.791 60.6397 293.081 74.5397 306.251 77.8897C322.651 81.8897 336.661 74.8197 341.751 59.2297C342.831 55.1897 344.891 54.6197 348.531 55.7897ZM285.001 37.7897H343.401C343.041 19.3697 331.561 6.03973 316.011 5.78973C298.401 5.53973 285.721 18.3897 285.001 37.7897Z" fill="white"/>
<path d="M360.569 56.1597H366.299C366.514 60.3802 367.888 64.46 370.269 67.951C372.651 71.4421 375.948 74.2096 379.799 75.9496C384.635 78.126 389.9 79.1835 395.202 79.0433C400.503 78.903 405.705 77.5687 410.419 75.1396C412.988 73.9818 415.139 72.0635 416.582 69.6439C418.025 67.2242 418.691 64.4198 418.489 61.6097C418.64 58.8983 417.902 56.2117 416.385 53.9589C414.869 51.7061 412.658 50.0103 410.089 49.1297C403.789 46.7897 397.089 45.4897 390.659 43.4297C383.976 41.5294 377.442 39.1396 371.109 36.2797C360.769 31.2297 360.109 11.5597 371.839 5.33965C377.836 1.95387 384.586 0.124187 391.472 0.0176318C398.357 -0.0889232 405.16 1.53106 411.259 4.72967C414.953 6.77377 417.938 9.8942 419.815 13.6759C421.693 17.4575 422.374 21.7212 421.769 25.8997H416.839C416.839 25.6597 416.389 25.4597 416.389 25.2097C415.789 9.49968 402.619 4.64966 388.479 6.02966C384.259 6.54897 380.159 7.79042 376.359 9.69967C374.148 10.8233 372.307 12.5593 371.055 14.7006C369.803 16.8419 369.193 19.2981 369.298 21.7763C369.404 24.2544 370.22 26.65 371.649 28.6772C373.078 30.7045 375.06 32.2778 377.359 33.2097C383.579 35.4797 390.089 36.9297 396.469 38.7097C401.599 40.1197 406.929 41.0497 411.899 42.7097C415.406 43.8586 418.481 46.0459 420.717 48.9818C422.953 51.9176 424.244 55.4635 424.419 59.1497C425.033 63.1892 424.356 67.3195 422.485 70.9518C420.614 74.5842 417.644 77.5336 413.999 79.3797C400.509 87.0197 378.289 84.9997 368.389 75.3797C365.883 72.85 363.901 69.8495 362.559 66.5509C361.217 63.2523 360.541 59.7207 360.569 56.1597Z" fill="white"/>
<path d="M497.181 25.9H491.811C491.741 25.2252 491.621 24.5566 491.451 23.9C491.365 19.8731 489.897 15.9982 487.293 12.9249C484.69 9.85164 481.109 7.76684 477.151 7.02C469.684 4.87339 461.717 5.25662 454.491 8.11C451.629 8.92447 449.109 10.6439 447.306 13.0108C445.503 15.3777 444.516 18.2649 444.491 21.24C444.389 24.1577 445.297 27.0211 447.063 29.3461C448.828 31.6712 451.343 33.3151 454.181 34C462.261 36.51 470.541 38 478.741 40.3C481.399 40.9402 484.017 41.7383 486.581 42.69C490.408 44.0574 493.733 46.5479 496.122 49.8356C498.51 53.1234 499.851 57.0555 499.969 61.1177C500.087 65.1799 498.976 69.183 496.782 72.6037C494.588 76.0243 491.412 78.7032 487.671 80.29C481.972 82.8806 475.795 84.2517 469.535 84.3154C463.275 84.3791 457.071 83.134 451.321 80.66C446.591 78.62 442.6 75.1802 439.885 70.8036C437.169 66.427 435.859 61.3235 436.131 56.18H441.381C442.351 60.868 444.45 65.2487 447.495 68.9424C450.541 72.6361 454.441 75.5315 458.858 77.3775C463.275 79.2235 468.076 79.9646 472.844 79.5363C477.612 79.1081 482.203 77.5235 486.221 74.92C488.67 73.6544 490.706 71.7126 492.085 69.325C493.464 66.9374 494.129 64.2043 494.001 61.45C494.125 58.7373 493.359 56.0584 491.822 53.8204C490.284 51.5823 488.057 49.9073 485.481 49.05C479.181 46.7 472.481 45.45 466.051 43.39C459.329 41.5218 452.754 39.1586 446.381 36.32C436.281 31.32 435.471 11.84 446.981 5.61998C453.056 2.09448 459.94 0.201137 466.963 0.124035C473.986 0.0469324 480.91 1.78873 487.061 5.18C490.574 7.28126 493.402 10.3584 495.198 14.037C496.995 17.7156 497.684 21.8371 497.181 25.9Z" fill="white"/>
<path d="M145.3 82.0495C143.185 82.8523 140.85 82.8519 138.736 82.0484C136.623 81.2448 134.877 79.694 133.83 77.6895C127.24 67.7895 120 58.4195 113 48.7895L110 44.7895C101.67 55.9295 93.3496 66.6395 85.7596 77.7895C84.7693 79.7045 83.1167 81.1944 81.1097 81.9818C79.1027 82.7691 76.8779 82.8003 74.8496 82.0695L106 40.1195L76.9996 2.26952C79.087 1.51018 81.3722 1.49336 83.4706 2.22194C85.5689 2.95052 87.352 4.37998 88.5196 6.26952C95.2596 16.1295 102.74 25.5395 110.17 35.5195C117.64 25.6195 125.03 16.1695 131.94 6.38951C132.942 4.51243 134.598 3.06837 136.594 2.3311C138.59 1.59384 140.788 1.61462 142.77 2.38951L131.5 17.3395C126.45 23.9995 121.5 30.7095 116.23 37.2095C115.829 37.5601 115.502 37.9873 115.268 38.466C115.034 38.9447 114.898 39.4653 114.869 39.9972C114.839 40.5291 114.915 41.0616 115.094 41.5634C115.273 42.0652 115.55 42.5263 115.91 42.9195C116.01 43.0295 116.12 43.1295 116.23 43.2295C125.87 56.0395 135.45 68.8795 145.3 82.0495Z" fill="white"/>
<path d="M277.88 1.86963V7.51965C270.136 7.01211 262.506 9.59886 256.668 14.7119C250.829 19.8248 247.259 27.0461 246.74 34.7896C246.673 35.7715 246.657 36.7561 246.69 37.7397V82.1696H240.92V2.16965H246.57V18.5696C253.56 6.62964 264.35 2.18963 277.88 1.86963Z" fill="white"/>
<path d="M0 39.5998C0.85 35.5998 1.36999 31.1498 2.53999 27.0298C9.53999 2.18976 38.01 -8.15022 57.6 7.23978C69.08 16.2398 71.94 29.0098 71.38 43.3898H6.75C5.7 69.0798 24.24 84.5998 47.95 76.6798C51.7954 75.3028 55.2376 72.9903 57.9662 69.951C60.6949 66.9116 62.6241 63.2409 63.58 59.2698C64.83 55.2698 66.85 54.5398 70.69 55.7098C70.0649 60.6353 68.3297 65.3546 65.6153 69.512C62.9009 73.6694 59.2781 77.1562 55.02 79.7097C47.9915 83.5469 39.9305 85.0657 31.9875 84.0493C24.0446 83.0328 16.6258 79.5332 10.79 74.0498C5.01185 67.5632 1.52013 59.3608 0.850006 50.6998C0.719361 49.342 0.447889 48.0014 0.0399933 46.6998C-6.71297e-06 44.2298 0 41.8798 0 39.5998ZM6.82999 37.8598H65.28C64.92 19.2398 53.16 6.02976 37.49 5.90976C20.04 5.65976 7.55001 18.5898 6.79001 37.7798L6.82999 37.8598Z" fill="white"/>
</g>
<defs>
<clipPath id="clip0_691_225">
<rect width="500" height="111.58" fill="white"/>
</clipPath>
</defs>
</svg>
